# xmcd CD database file
#
# Track frame offsets:
#	150
#	17692
#	38602
#	55498
#	71803
#	96965
#	114001
#	130312
#	145243
#	164650
#	183629
#
# Disc length: 2955 seconds
#
# Revision: 1
# Processed by: cddbd v1.5.1PL2 Copyright (c) Steve Scherf et al.
# Submitted via: CDex 1.70beta1
#
DISCID=9c0b890b
DTITLE=Alison Hams - Daisy Train
DYEAR=2003
DGENRE=Country
TTITLE0=Romeo
TTITLE1=Promises
TTITLE2=Two Broken Hearts
TTITLE3=Hillbilly Wind
TTITLE4=Moment
TTITLE5=Better Than Here
TTITLE6=Cloud Nine Blues
TTITLE7=Heading Home
TTITLE8=All I'm wishing For
TTITLE9=Needing A Place To Hide
TTITLE10=Second Fiddle
EXTD=YEAR: 2003
EXTT0=
EXTT1=
EXTT2=
EXTT3=
EXTT4=
EXTT5=
EXTT6=
EXTT7=
EXTT8=
EXTT9=
EXTT10=
PLAYORDER=
